<svg width="310" height="206" viewBox="0 0 310 206" fill="none" xmlns="http://www.w3.org/2000/svg">
<path d="M299.859 60.9058C313.38 74.1904 313.38 95.7289 299.859 109.013L230.49 177.166C216.968 190.45 195.045 190.45 181.523 177.166C168.002 163.881 168.002 142.343 181.523 129.058L114.195 195.206C99.5462 209.598 75.7963 209.598 61.1479 195.206C46.4994 180.815 46.4994 157.481 61.1479 143.09L59.1076 145.094C45.5859 158.379 23.6629 158.379 10.1413 145.094C-3.38042 131.81 -3.38042 110.271 10.1413 96.9866L79.5102 28.8341C93.0319 15.5495 114.955 15.5495 128.477 28.8341C141.998 42.1186 141.998 63.6571 128.477 76.9417L195.805 10.7937C210.454 -3.5979 234.204 -3.5979 248.852 10.7937C263.501 25.1853 263.501 48.5187 248.852 62.9103L250.892 60.9058C264.414 47.6213 286.337 47.6213 299.859 60.9058Z" fill="url(#paint0_linear_188_121)"/>
<defs>
<linearGradient id="paint0_linear_188_121" x1="0" y1="0" x2="309.383" y2="206.923" gradientUnits="userSpaceOnUse">
<stop stop-color="#679EFE"/>
<stop offset="1" stop-color="#F067EB"/>
</linearGradient>
</defs>
</svg>
