<svg width="239" height="150" viewBox="0 0 239 150" fill="none" xmlns="http://www.w3.org/2000/svg">
<path d="M231.181 44.3489C241.606 54.0221 241.606 69.7055 231.181 79.3787L177.7 129.004C167.275 138.678 150.373 138.678 139.949 129.004C129.524 119.331 129.524 103.648 139.949 93.9745L88.0404 142.141C76.7469 152.62 58.4365 152.62 47.143 142.141C35.8495 131.661 35.8495 114.671 47.143 104.192L45.57 105.651C35.1453 115.324 18.2434 115.324 7.81858 105.651C-2.60619 95.9779 -2.60619 80.2945 7.81858 70.6213L61.2998 20.9957C71.7246 11.3225 88.6265 11.3225 99.0513 20.9957C109.476 30.6689 109.476 46.3523 99.0513 56.0255L150.96 7.85949C162.253 -2.61983 180.563 -2.61983 191.857 7.85949C203.15 18.3388 203.15 35.3292 191.857 45.8085L193.43 44.3489C203.855 34.6757 220.757 34.6757 231.181 44.3489Z" fill="url(#paint0_linear_188_121)"/>
<defs>
<linearGradient id="paint0_linear_188_121" x1="0" y1="0" x2="229.922" y2="162.819" gradientUnits="userSpaceOnUse">
<stop stop-color="#679EFE"/>
<stop offset="1" stop-color="#F067EB"/>
</linearGradient>
</defs>
</svg>
