<svg width="8" height="5" viewBox="0 0 8 5" fill="none" xmlns="http://www.w3.org/2000/svg">
<path d="M7.73829 1.4783C8.08724 1.80074 8.08724 2.32352 7.73829 2.64596L5.94812 4.30014C5.59918 4.62258 5.03342 4.62258 4.68448 4.30014C4.33553 3.9777 4.33553 3.45492 4.68448 3.13248L2.94696 4.73802C2.56893 5.08733 1.95603 5.08733 1.57801 4.73802C1.19998 4.38871 1.19998 3.82236 1.57801 3.47305L1.52536 3.5217C1.17641 3.84414 0.610656 3.84414 0.26171 3.5217C-0.0872366 3.19926 -0.0872366 2.67648 0.26171 2.35404L2.05188 0.699856C2.40082 0.377415 2.96658 0.377415 3.31552 0.699856C3.66447 1.0223 3.66447 1.54508 3.31552 1.86752L5.05304 0.261983C5.43106 -0.0873276 6.04396 -0.0873277 6.42199 0.261983C6.80002 0.611294 6.80002 1.17764 6.42199 1.52695L6.47464 1.4783C6.82359 1.15586 7.38934 1.15586 7.73829 1.4783Z" fill="url(#paint0_linear_188_121)"/>
<defs>
<linearGradient id="paint0_linear_188_121" x1="0" y1="0" x2="7.67465" y2="5.45753" gradientUnits="userSpaceOnUse">
<stop stop-color="#679EFE"/>
<stop offset="1" stop-color="#F067EB"/>
</linearGradient>
</defs>
</svg>
