<svg width="380" height="376" viewBox="0 0 380 376" fill="none" xmlns="http://www.w3.org/2000/svg">
<mask id="mask0_202_169" style="mask-type:alpha" maskUnits="userSpaceOnUse" x="1" y="1" width="378" height="375">
<path d="M190.125 32.8094C185.667 32.8085 181.891 31.2665 178.795 28.1836C175.7 25.1006 174.153 21.3399 174.154 16.9014C174.155 12.5862 175.704 8.88776 178.8 5.8061C181.897 2.60115 185.674 0.999143 190.132 1.00007C194.466 1.00097 198.181 2.60453 201.276 5.81077C204.495 8.89373 206.104 12.5928 206.103 16.908C206.102 21.3466 204.491 25.1066 201.271 28.1883C198.175 31.2699 194.459 32.8103 190.125 32.8094ZM243.248 41.5125C238.79 41.5116 235.013 39.9696 231.918 36.8867C228.823 33.8038 227.276 30.043 227.277 25.6045C227.277 21.2893 228.826 17.5909 231.923 14.5092C235.019 11.3043 238.796 9.70225 243.254 9.70318C247.588 9.70408 251.303 11.3076 254.398 14.5139C257.617 17.5968 259.226 21.2959 259.225 25.6112C259.225 30.0497 257.614 33.8097 254.394 36.8914C251.297 39.973 247.582 41.5134 243.248 41.5125ZM291.537 65.7494C287.08 65.7485 283.303 64.2065 280.208 61.1236C277.113 58.0406 275.565 54.2799 275.566 49.8414C275.567 45.5262 277.116 41.8278 280.212 38.7461C283.309 35.5412 287.086 33.9391 291.544 33.9401C295.878 33.941 299.593 35.5445 302.688 38.7508C305.907 41.8337 307.516 45.5328 307.515 49.848C307.514 54.2866 305.904 58.0466 302.683 61.1283C299.587 64.2099 295.872 65.7503 291.537 65.7494ZM329.608 103.855C325.274 103.854 321.497 102.312 318.278 99.2287C315.183 96.0225 313.636 92.2617 313.637 87.9465C313.638 83.508 315.187 79.7479 318.283 76.6663C321.503 73.5846 325.281 72.0443 329.615 72.0452C333.949 72.0461 337.664 73.588 340.759 76.6709C343.978 79.7539 345.587 83.5146 345.586 87.9532C345.585 92.2684 343.974 96.0284 340.754 99.2334C337.658 102.315 333.942 103.855 329.608 103.855ZM353.932 151.204C349.597 151.203 345.821 149.661 342.602 146.578C339.507 143.372 337.96 139.611 337.96 135.296C337.961 130.98 339.51 127.282 342.606 124.2C345.827 120.995 349.604 119.393 353.938 119.394C358.272 119.395 361.987 120.999 365.082 124.205C368.301 127.288 369.91 130.987 369.909 135.302C369.908 139.618 368.298 143.378 365.077 146.583C361.981 149.664 358.266 151.205 353.932 151.204ZM363.022 204.283C358.688 204.282 354.912 202.74 351.693 199.657C348.597 196.451 347.05 192.69 347.051 188.375C347.052 184.06 348.601 180.361 351.697 177.279C354.917 174.075 358.695 172.473 363.029 172.473C367.487 172.474 371.263 174.078 374.359 177.284C377.454 180.367 379.001 184.066 379 188.381C378.999 192.697 377.45 196.457 374.354 199.662C371.257 202.743 367.48 204.284 363.022 204.283ZM353.91 257.358C349.575 257.357 345.799 255.815 342.58 252.732C339.485 249.649 337.937 245.889 337.938 241.45C337.939 237.135 339.488 233.436 342.584 230.355C345.805 227.15 349.582 225.548 353.916 225.549C358.25 225.55 361.965 227.153 365.06 230.359C368.279 233.442 369.888 237.141 369.887 241.457C369.886 245.895 368.276 249.655 365.055 252.737C361.959 255.819 358.244 257.359 353.91 257.358ZM329.566 304.882C325.232 304.881 321.456 303.339 318.237 300.256C315.142 297.05 313.594 293.289 313.595 288.974C313.596 284.536 315.145 280.775 318.241 277.694C321.462 274.612 325.239 273.072 329.573 273.073C333.907 273.074 337.622 274.616 340.717 277.698C343.936 280.781 345.545 284.542 345.544 288.981C345.543 293.296 343.933 297.056 340.712 300.261C337.616 303.343 333.901 304.883 329.566 304.882ZM291.48 342.786C287.022 342.785 283.245 341.182 280.15 337.976C277.055 334.893 275.508 331.194 275.509 326.878C275.51 322.563 277.058 318.865 280.155 315.783C283.251 312.578 287.029 310.976 291.487 310.977C295.821 310.978 299.535 312.582 302.631 315.788C305.85 318.871 307.459 322.57 307.458 326.885C307.457 331.2 305.846 334.899 302.626 337.98C299.529 341.185 295.814 342.787 291.48 342.786ZM243.18 367.003C238.722 367.002 234.946 365.399 231.85 362.192C228.755 359.11 227.208 355.41 227.209 351.095C227.21 346.78 228.759 343.02 231.855 339.815C234.952 336.733 238.729 335.193 243.187 335.194C247.521 335.195 251.236 336.737 254.331 339.82C257.55 343.026 259.159 346.787 259.158 351.102C259.157 355.417 257.546 359.116 254.326 362.197C251.23 365.402 247.514 367.004 243.18 367.003ZM190.054 375.684C185.596 375.683 181.819 374.08 178.724 370.874C175.629 367.791 174.082 364.092 174.083 359.776C174.084 355.461 175.632 351.701 178.729 348.496C181.825 345.414 185.603 343.874 190.061 343.875C194.395 343.876 198.109 345.418 201.205 348.501C204.424 351.707 206.033 355.468 206.032 359.783C206.031 364.098 204.42 367.797 201.2 370.878C198.103 374.083 194.388 375.685 190.054 375.684ZM136.931 366.981C132.473 366.98 128.697 365.377 125.602 362.17C122.507 359.087 120.959 355.388 120.96 351.073C120.961 346.758 122.51 342.998 125.606 339.793C128.703 336.711 132.48 335.171 136.938 335.172C141.272 335.173 144.987 336.715 148.082 339.798C151.301 343.004 152.91 346.765 152.909 351.08C152.908 355.395 151.298 359.093 148.077 362.175C144.981 365.38 141.266 366.982 136.931 366.981ZM88.6417 342.744C84.1837 342.743 80.4071 341.14 77.3119 337.934C74.2168 334.851 72.6696 331.152 72.6705 326.836C72.6714 322.521 74.2201 318.823 77.3165 315.741C80.413 312.536 84.1903 310.934 88.6483 310.935C92.9824 310.936 96.6971 312.539 99.7922 315.746C103.011 318.829 104.62 322.528 104.619 326.843C104.619 331.158 103.008 334.857 99.7876 337.938C96.6911 341.143 92.9758 342.745 88.6417 342.744ZM50.3851 304.824C46.051 304.823 42.2744 303.281 39.0554 300.198C35.9602 296.992 34.4131 293.231 34.414 288.916C34.4149 284.478 35.9636 280.717 39.0601 277.636C42.2804 274.554 46.0576 273.014 50.3918 273.015C54.7259 273.016 58.4406 274.558 61.5358 277.64C64.7548 280.723 66.3638 284.484 66.3629 288.923C66.362 293.238 64.7514 296.998 61.5311 300.203C58.4346 303.285 54.7193 304.825 50.3851 304.824ZM26.0618 257.29C21.7277 257.289 17.9511 255.747 14.7321 252.664C11.6369 249.581 10.0898 245.82 10.0907 241.382C10.0916 237.067 11.6403 233.368 14.7367 230.287C17.9571 227.082 21.7343 225.48 26.0684 225.481C30.5264 225.482 34.303 227.085 37.3982 230.291C40.4933 233.374 42.0405 237.073 42.0396 241.389C42.0387 245.827 40.49 249.587 37.3935 252.669C34.2971 255.751 30.5198 257.291 26.0618 257.29ZM16.9711 204.211C12.637 204.21 8.86041 202.668 5.64139 199.585C2.54623 196.379 0.999102 192.618 0.999998 188.303C1.00089 183.988 2.54957 180.289 5.64604 177.208C8.86636 174.003 12.6436 172.401 16.9777 172.402C21.3119 172.402 25.0266 174.006 28.1217 177.212C31.3407 180.295 32.9498 183.994 32.9489 188.31C32.948 192.625 31.3374 196.385 28.1171 199.59C25.0206 202.671 21.3053 204.212 16.9711 204.211ZM26.0839 151.136C21.7497 151.135 17.9731 149.593 14.7541 146.51C11.659 143.304 10.1118 139.543 10.1127 135.228C10.1136 130.912 11.6623 127.214 14.7588 124.132C17.9791 120.927 21.7563 119.325 26.0905 119.326C30.5485 119.327 34.325 120.931 37.4202 124.137C40.5154 127.22 42.0625 130.919 42.0616 135.234C42.0607 139.549 40.512 143.31 37.4156 146.515C34.3191 149.596 30.5419 151.137 26.0839 151.136ZM50.4269 103.797C46.0927 103.796 42.3161 102.254 39.0971 99.1707C36.002 95.9645 34.4548 92.2038 34.4557 87.8886C34.4567 83.4501 36.0053 79.69 39.1018 76.6083C42.3221 73.5267 46.0993 71.9863 50.4335 71.9872C54.7676 71.9881 58.4823 73.53 61.5775 76.613C64.7965 79.696 66.4055 83.4567 66.4046 87.8952C66.4037 92.2104 64.7931 95.9705 61.5728 99.1754C58.4763 102.257 54.761 103.797 50.4269 103.797ZM88.6992 65.7073C84.2412 65.7064 80.4646 64.1644 77.3694 61.0815C74.2742 57.9985 72.7271 54.2378 72.728 49.7993C72.7289 45.4841 74.2776 41.7857 77.3741 38.704C80.4705 35.499 84.2478 33.897 88.7058 33.898C93.0399 33.8989 96.7546 35.5024 99.8497 38.7087C103.069 41.7916 104.678 45.4907 104.677 49.8059C104.676 54.2444 103.065 58.0045 99.8451 61.0861C96.7486 64.1678 93.0333 65.7082 88.6992 65.7073ZM136.999 41.4904C132.541 41.4895 128.764 39.9476 125.669 36.8646C122.574 33.7817 121.027 30.021 121.028 25.5825C121.029 21.2672 122.577 17.5688 125.674 14.4872C128.77 11.2822 132.548 9.6802 137.006 9.68112C141.34 9.68202 145.054 11.2856 148.15 14.4918C151.369 17.5748 152.978 21.2739 152.977 25.5891C152.976 30.0276 151.365 33.7877 148.145 36.8693C145.048 39.951 141.333 41.4913 136.999 41.4904Z" fill="black"/>
</mask>
<g mask="url(#mask0_202_169)">
<rect x="0.999847" y="-2.3158" width="378" height="378" fill="url(#paint0_linear_202_169)"/>
</g>
<path d="M142.777 282.842C135.474 282.842 129.896 280.882 126.045 276.961C122.261 273.04 120.368 267.224 120.368 259.513V191.977C120.368 184.267 122.261 178.483 126.045 174.628C129.896 170.707 135.474 168.747 142.777 168.747H233.907C241.211 168.747 246.755 170.707 250.539 174.628C254.39 178.483 256.316 184.267 256.316 191.977V259.513C256.316 267.224 254.39 273.04 250.539 276.961C246.755 280.882 241.211 282.842 233.907 282.842H142.777ZM137.798 176.294V145.32C137.798 133.035 140.188 122.841 144.968 114.737C149.815 106.634 156.09 100.59 163.792 96.6037C171.494 92.5522 179.661 90.5265 188.292 90.5265C196.99 90.5265 205.19 92.5522 212.892 96.6037C220.594 100.59 226.836 106.634 231.616 114.737C236.463 122.841 238.887 133.035 238.887 145.32V176.294H223.151V143.163C223.151 134.93 221.524 128.003 218.27 122.383C215.083 116.763 210.834 112.516 205.522 109.64C200.277 106.765 194.534 105.328 188.292 105.328C182.117 105.328 176.374 106.765 171.062 109.64C165.817 112.516 161.601 116.763 158.414 122.383C155.227 128.003 153.633 134.93 153.633 143.163V176.294H137.798Z" fill="white"/>
<defs>
<linearGradient id="paint0_linear_202_169" x1="0.999847" y1="-2.3158" x2="379" y2="375.684" gradientUnits="userSpaceOnUse">
<stop stop-color="#679EFE"/>
<stop offset="1" stop-color="#F067EB"/>
</linearGradient>
</defs>
</svg>
